<svg width="16" height="16" viewBox="0 0 16 16" fill="none" xmlns="http://www.w3.org/2000/svg">
<path d="M3.90172 8.00008C3.90172 7.23567 4.11232 6.5196 4.47821 5.90646V3.30566H1.87741C0.845172 4.64626 0.285645 6.2801 0.285645 8.00008C0.285645 9.72007 0.845172 11.3539 1.87741 12.6945H4.47821V10.0937C4.11232 9.48056 3.90172 8.76449 3.90172 8.00008V8.00008Z" fill="#FBBD00"/>
<path d="M7.99993 12.0984L6.19189 13.9064L7.99993 15.7144C9.71995 15.7144 11.3537 15.1549 12.6943 14.1227V11.5247H10.0963C9.47782 11.8919 8.75873 12.0984 7.99993 12.0984V12.0984Z" fill="#0F9D58"/>
<path d="M4.47824 10.0936L1.87744 12.6944C2.08181 12.9598 2.30435 13.214 2.54515 13.4548C4.00219 14.9118 5.93941 15.7142 7.99996 15.7142V12.0982C6.5046 12.0982 5.19398 11.293 4.47824 10.0936Z" fill="#31AA52"/>
<path d="M15.7142 8.00003C15.7142 7.53069 15.6717 7.06048 15.5878 6.6025L15.52 6.23189H7.99988V9.84796H11.6597C11.3043 10.5549 10.7579 11.1317 10.0962 11.5246L12.6943 14.1226C12.9597 13.9182 13.2139 13.6957 13.4547 13.4549C14.9117 11.9978 15.7142 10.0606 15.7142 8.00003V8.00003Z" fill="#3C79E6"/>
<path d="M10.8978 5.1021L11.2174 5.4217L13.7744 2.86478L13.4548 2.54518C11.9977 1.08814 10.0605 0.285706 7.99993 0.285706L6.19189 2.09374L7.99993 3.90178C9.09458 3.90178 10.1237 4.32805 10.8978 5.1021Z" fill="#CF2D48"/>
<path d="M8 3.90178V0.285706C5.93944 0.285706 4.00222 1.08814 2.54515 2.54515C2.30435 2.78595 2.08181 3.04013 1.87744 3.30558L4.47824 5.90638C5.19401 4.70696 6.50463 3.90178 8 3.90178V3.90178Z" fill="#EB4132"/>
</svg>
