<svg width="24" height="24" viewBox="0 0 24 24" fill="none" xmlns="http://www.w3.org/2000/svg">
<path d="M7.90172 12.0001C7.90172 11.2357 8.11232 10.5196 8.47821 9.90646V7.30566H5.87741C4.84517 8.64626 4.28564 10.2801 4.28564 12.0001C4.28564 13.7201 4.84517 15.3539 5.87741 16.6945H8.47821V14.0937C8.11232 13.4806 7.90172 12.7645 7.90172 12.0001Z" fill="#FBBD00"/>
<path d="M11.9999 16.0984L10.1919 17.9064L11.9999 19.7144C13.7199 19.7144 15.3537 19.1549 16.6943 18.1227V15.5247H14.0963C13.4778 15.8919 12.7587 16.0984 11.9999 16.0984Z" fill="#0F9D58"/>
<path d="M8.47824 14.0936L5.87744 16.6944C6.08181 16.9598 6.30435 17.214 6.54515 17.4548C8.00219 18.9118 9.93941 19.7142 12 19.7142V16.0982C10.5046 16.0982 9.19398 15.293 8.47824 14.0936Z" fill="#31AA52"/>
<path d="M19.7142 12C19.7142 11.5307 19.6717 11.0605 19.5878 10.6025L19.52 10.2319H11.9999V13.848H15.6597C15.3043 14.5549 14.7579 15.1317 14.0962 15.5246L16.6943 18.1226C16.9597 17.9182 17.2139 17.6957 17.4547 17.4549C18.9117 15.9978 19.7142 14.0606 19.7142 12Z" fill="#3C79E6"/>
<path d="M14.8978 9.1021L15.2174 9.4217L17.7744 6.86478L17.4548 6.54518C15.9977 5.08814 14.0605 4.28571 11.9999 4.28571L10.1919 6.09374L11.9999 7.90178C13.0946 7.90178 14.1237 8.32805 14.8978 9.1021Z" fill="#CF2D48"/>
<path d="M12 7.90178V4.28571C9.93944 4.28571 8.00222 5.08814 6.54515 6.54515C6.30435 6.78595 6.08181 7.04013 5.87744 7.30558L8.47824 9.90638C9.19401 8.70696 10.5046 7.90178 12 7.90178Z" fill="#EB4132"/>
</svg>
