<svg width="46" height="35" viewBox="0 0 46 35" fill="currentColor" xmlns="http://www.w3.org/2000/svg">
<g clip-path="url(#clip0)">
<path d="M30.4817 17.3979L30.5891 17.5027L30.6939 17.3952L45.6119 2.09173L45.7166 1.98431L45.6092 1.87961L44.9982 1.28411L44.8907 1.17943L44.7861 1.28683L29.8685 16.5898L29.7639 16.6972L29.8712 16.8019L30.4817 17.3979ZM27.4037 15.5873L27.3237 15.7138L27.45 15.7941L28.1685 16.2506L28.2954 16.3312L28.3757 16.2042L38.2907 0.536744L38.3709 0.41002L38.2442 0.329797L37.5232 -0.126703L37.3964 -0.206971L37.3162 -0.0801681L27.4037 15.5873ZM23.6824 11.8846L23.5878 12.0015L23.7048 12.0958L24.3703 12.6323L24.4869 12.7263L24.581 12.6099C25.9242 10.9507 25.2429 9.26677 24.6757 7.8649L24.6675 7.84477L24.5285 7.90103L24.6675 7.84476C24.3879 7.15381 24.1387 6.53519 24.0735 5.94232C24.0095 5.36082 24.1232 4.80547 24.5811 4.23936L24.6756 4.12254L24.5586 4.02825L23.8931 3.49175L23.7766 3.3978L23.6824 3.51416C22.3401 5.17246 23.0207 6.85539 23.5873 8.2565L23.5959 8.27776L23.5959 8.27782C23.8758 8.96902 24.1252 9.58802 24.1905 10.1812C24.2545 10.763 24.1407 11.3185 23.6824 11.8846ZM19.1379 11.8846L19.0433 12.0015L19.1603 12.0958L19.8258 12.6323L19.9424 12.7263L20.0365 12.6099C21.379 10.9515 20.6986 9.26853 20.1321 7.86719L20.123 7.84481L20.123 7.84476C19.8434 7.15381 19.5942 6.53519 19.529 5.94231C19.465 5.36082 19.5787 4.80547 20.0366 4.23936L20.1311 4.12254L20.0141 4.02825L19.3486 3.49175L19.232 3.39778L19.1379 3.51418C17.7954 5.17336 18.4769 6.85715 19.0442 8.25878L19.0519 8.27778C19.0519 8.27779 19.0519 8.2778 19.0519 8.2778C19.3315 8.96901 19.5808 9.58799 19.646 10.1812C19.71 10.763 19.5962 11.3185 19.1379 11.8846ZM14.5929 11.8846L14.4983 12.0014L14.6153 12.0958L15.2808 12.6323L15.3974 12.7263L15.4915 12.6099C16.8349 10.9506 16.1537 9.26708 15.5866 7.86544L15.578 7.84427L15.578 7.84426C15.2984 7.1533 15.0492 6.53481 14.984 5.94206C14.92 5.3607 15.0337 4.80548 15.4916 4.23936L15.5861 4.12254L15.4691 4.02825L14.8036 3.49175L14.6871 3.3978L14.5929 3.51416C13.2503 5.17278 13.9314 6.85553 14.4986 8.25681L14.5069 8.2773C14.7868 8.96876 15.0362 9.58788 15.1014 10.1811C15.1654 10.763 15.0514 11.3185 14.5929 11.8846ZM30.9825 32.8883V32.888C30.9824 32.7738 30.9736 32.6599 30.956 32.5472C34.1188 31.3767 36.994 29.5408 39.3869 27.1631C41.8097 24.7557 43.6802 21.8503 44.8689 18.6483C44.8689 18.6481 44.869 18.6479 44.8691 18.6477L45.0854 18.0728L45.1617 17.87H44.945H0.494961H0.278797L0.354446 18.0725L0.569345 18.6478L0.709961 18.5955L0.569446 18.648L0.569389 18.6479C1.75838 21.8494 3.62893 24.7543 6.05154 27.1614C8.44413 29.5387 11.3187 31.3745 14.4809 32.5452C14.4633 32.6579 14.4545 32.7718 14.4545 32.886L14.4545 32.8862C14.4552 33.4864 14.6939 34.0618 15.1183 34.4862C15.5427 34.9106 16.1181 35.1493 16.7183 35.15H16.7185H28.7185H28.7186C29.3185 35.1493 29.8935 34.9109 30.3179 34.4869C30.7422 34.063 30.9812 33.4882 30.9825 32.8883ZM43.4822 19.023C42.2815 21.9212 40.4854 24.5359 38.2095 26.6973C35.8797 28.9097 33.1015 30.5954 30.0632 31.6402L30.0629 31.6403L29.6199 31.7938L29.4642 31.8477L29.5324 31.9976L29.7264 32.4241L29.727 32.4254C29.8057 32.5942 29.8404 32.78 29.828 32.9658C29.8155 33.1516 29.7563 33.3312 29.6559 33.488C29.5554 33.6447 29.417 33.7735 29.2534 33.8624C29.0898 33.9514 28.9064 33.9975 28.7202 33.9965H28.7195H16.7196C16.4252 33.9962 16.1429 33.879 15.9347 33.6708C15.746 33.4822 15.6321 33.2327 15.6121 32.9685H24.452H24.602V32.8185V31.965V31.815H24.452H15.8815L15.82 31.7938L15.376 31.6403L15.3757 31.6402C12.3375 30.5953 9.55935 28.9096 7.22959 26.6971C4.95364 24.5358 3.15756 21.9211 1.95677 19.023H43.4822ZM29.4122 30.2185L29.4611 30.3603L29.6029 30.3113C34.258 28.7032 38.2036 25.5169 40.7558 21.3048L40.8336 21.1762L40.7049 21.0986L39.9739 20.6576L39.8458 20.5803L39.7682 20.7083C37.356 24.6896 33.6265 27.7011 29.2265 29.2207L29.0847 29.2697L29.1337 29.4115L29.4122 30.2185Z" fill="currentColor" stroke="CurrentColor" stroke-width="0.3"/>
</g>
<defs>
<clipPath id="clip0">
<rect width="45" height="35" fill="white" transform="translate(0.5)"/>
</clipPath>
</defs>
</svg>
