			<svg
				width="20"
				height="23"
				viewBox="0 0 20 23"
				fill="none"
				xmlns="http://www.w3.org/2000/svg"
			>
				<path
					d="M1.91406 18.3749H6.05246C6.12277 20.2834 7.68973 22.0512 10 22.0512C12.3002 22.0512 13.8772 20.2934 13.9576 18.3749H18.0859C19.1306 18.3749 19.7734 17.8024 19.7734 16.9385C19.7734 15.8637 18.7991 14.9497 17.885 14.0758C17.1819 13.3827 17.0212 12.0166 16.8806 10.6506C16.8705 10.0881 16.8304 9.5557 16.7701 9.04342C16.1674 9.29454 15.4141 9.39499 14.7712 9.30458C14.8214 9.76664 14.8616 10.2588 14.8717 10.8314C14.9721 12.7399 15.3036 14.2064 15.9866 14.9999C16.4788 15.5624 17.0413 16.0948 17.3025 16.3861V16.5066H2.67746V16.3861C2.93862 16.0948 3.52121 15.5624 4.01339 14.9999C4.70647 14.2064 5.0279 12.7399 5.12835 10.8314C5.24888 6.80347 6.48438 5.4374 8.10156 5.01552C8.35268 4.94521 8.48326 4.82467 8.50335 4.55347C8.56362 3.53896 9.12612 2.85592 10 2.85592C10.1708 2.85592 10.3214 2.87601 10.4621 2.92623C10.6429 2.31351 10.9643 1.76106 11.3862 1.299C10.9743 1.08807 10.5123 0.967529 10 0.967529C8.50335 0.967529 7.38839 1.98204 7.0067 3.31798C4.38505 4.26217 3.28013 6.79342 3.12946 10.5803C2.99888 11.9965 2.82812 13.3827 2.11496 14.0758C1.20089 14.9497 0.226562 15.8637 0.226562 16.9385C0.226562 17.8024 0.86942 18.3749 1.91406 18.3749ZM15.0223 7.99878C16.9107 7.99878 18.4877 6.43182 18.4877 4.53338C18.4877 2.63494 16.9107 1.06798 15.0223 1.06798C13.1239 1.06798 11.5569 2.63494 11.5569 4.53338C11.5569 6.43182 13.1239 7.99878 15.0223 7.99878ZM10 20.434C8.86496 20.434 8.05134 19.6204 7.98103 18.3749H12.029C11.9688 19.6104 11.1451 20.434 10 20.434Z"
					fill="#091E42"
				/>
			</svg>