<svg width="12" height="12" viewBox="0 0 12 12" fill="none" xmlns="http://www.w3.org/2000/svg">
<path d="M5.99993 4.11956C4.96456 4.11956 4.11962 4.9645 4.11962 5.99988C4.11962 7.03525 4.96456 7.88019 5.99993 7.88019C7.03531 7.88019 7.88025 7.03525 7.88025 5.99988C7.88025 4.9645 7.03531 4.11956 5.99993 4.11956ZM11.6395 5.99988C11.6395 5.22123 11.6465 4.44964 11.6028 3.6724C11.5591 2.76963 11.3531 1.96841 10.693 1.30825C10.0314 0.646687 9.2316 0.442151 8.32882 0.398423C7.55017 0.354695 6.77858 0.361748 6.00134 0.361748C5.2227 0.361748 4.4511 0.354695 3.67387 0.398423C2.77109 0.442151 1.96988 0.648097 1.30972 1.30825C0.648152 1.96982 0.443616 2.76963 0.399888 3.6724C0.35616 4.45105 0.363213 5.22264 0.363213 5.99988C0.363213 6.77711 0.35616 7.55012 0.399888 8.32735C0.443616 9.23013 0.649562 10.0313 1.30972 10.6915C1.97129 11.3531 2.77109 11.5576 3.67387 11.6013C4.45251 11.6451 5.22411 11.638 6.00134 11.638C6.77999 11.638 7.55158 11.6451 8.32882 11.6013C9.2316 11.5576 10.0328 11.3517 10.693 10.6915C11.3545 10.0299 11.5591 9.23013 11.6028 8.32735C11.6479 7.55012 11.6395 6.77852 11.6395 5.99988ZM5.99993 8.893C4.39891 8.893 3.10681 7.6009 3.10681 5.99988C3.10681 4.39886 4.39891 3.10676 5.99993 3.10676C7.60095 3.10676 8.89305 4.39886 8.89305 5.99988C8.89305 7.6009 7.60095 8.893 5.99993 8.893ZM9.01154 3.66394C8.63774 3.66394 8.33587 3.36207 8.33587 2.98827C8.33587 2.61446 8.63774 2.31259 9.01154 2.31259C9.38535 2.31259 9.68722 2.61446 9.68722 2.98827C9.68733 3.07703 9.66993 3.16494 9.63601 3.24697C9.60209 3.32899 9.55233 3.40352 9.48956 3.46629C9.4268 3.52905 9.35227 3.57882 9.27024 3.61273C9.18822 3.64665 9.1003 3.66405 9.01154 3.66394Z" fill="#7A869A"/>
</svg>
