			<svg
				width="24"
				height="19"
				viewBox="0 0 24 19"
				fill="none"
				xmlns="http://www.w3.org/2000/svg"
			>
				<path
					d="M4.0144 18.4441H20.2164C22.155 18.4441 23.28 17.3191 23.28 15.1695V4.07021C23.28 1.92065 22.145 0.795654 19.9753 0.795654H3.77333C1.83472 0.795654 0.709717 1.91061 0.709717 4.07021V15.1695C0.709717 17.3191 1.84476 18.4441 4.0144 18.4441ZM10.8649 9.96641L3.55235 2.73427C3.69298 2.70414 3.85369 2.68405 4.02445 2.68405H19.9653C20.1461 2.68405 20.3068 2.70414 20.4575 2.74432L13.155 9.96641C12.7332 10.3782 12.3816 10.559 12.0099 10.559C11.6383 10.559 11.2867 10.3682 10.8649 9.96641ZM2.58807 4.21083L8.05235 9.58472L2.58807 14.9887V4.21083ZM15.9675 9.58472L21.4017 4.24097V14.9686L15.9675 9.58472ZM4.02445 16.5457C3.84365 16.5457 3.67289 16.5256 3.52222 16.4954L9.2778 10.7901L9.82021 11.3325C10.5535 12.0457 11.2566 12.347 12.0099 12.347C12.7532 12.347 13.4664 12.0457 14.1896 11.3325L14.7421 10.7901L20.4876 16.4854C20.3269 16.5256 20.1561 16.5457 19.9653 16.5457H4.02445Z"
					fill="#091E42"
				/>
			</svg>