<svg width="12" height="10" viewBox="0 0 12 10" fill="none" xmlns="http://www.w3.org/2000/svg">
  <path
    d="M6.66799 9.47803C6.94421 9.47803 7.16017 9.37256 7.42636 9.12144L11.404 5.38986C11.5999 5.20403 11.6752 4.98807 11.6752 4.80225C11.6752 4.6114 11.5999 4.40046 11.404 4.21463L7.42636 0.508161C7.13506 0.236956 6.94421 0.126465 6.67803 0.126465C6.27624 0.126465 5.98997 0.437849 5.98997 0.82959V2.61754H5.86441C2.39901 2.61754 0.79187 4.84242 0.79187 8.48863C0.79187 9.12646 1.06308 9.45794 1.41464 9.45794C1.68082 9.45794 1.92691 9.37256 2.12279 9.00593C2.91129 7.53941 4.03127 7.00202 5.86441 7.00202H5.98997V8.80001C5.98997 9.19176 6.27624 9.47803 6.66799 9.47803Z"
    fill="currentColor"
  />
</svg>
