<svg width="14" height="10" viewBox="0 0 14 10" fill="none" xmlns="http://www.w3.org/2000/svg">
<path d="M4.76288 9.97346C9.30506 9.97346 11.7901 6.20647 11.7901 2.94564C11.7901 2.83971 11.7901 2.73379 11.7853 2.62786C12.2692 2.27718 12.6868 1.84308 13.0185 1.34592C12.5669 1.54545 12.0882 1.67708 11.5981 1.73652C12.1145 1.42734 12.5012 0.941244 12.6863 0.36851C12.2009 0.656471 11.6695 0.858642 11.1154 0.966149C10.8848 0.719737 10.606 0.52331 10.2964 0.389036C9.98672 0.254762 9.6528 0.185502 9.31529 0.185547C8.66003 0.186025 8.03175 0.446537 7.56841 0.909874C7.10508 1.37321 6.84456 2.00149 6.84409 2.65675C6.84409 2.84934 6.86816 3.03712 6.90668 3.22008C5.92439 3.17076 4.96346 2.91539 4.08627 2.47058C3.20908 2.02576 2.43525 1.40144 1.81501 0.638139C1.49981 1.18255 1.40359 1.8265 1.54588 2.43927C1.68818 3.05203 2.05832 3.58769 2.58117 3.93749C2.18941 3.92393 1.80634 3.81837 1.46293 3.62934V3.66305C1.46346 4.23318 1.66077 4.78566 2.02154 5.22713C2.38231 5.66861 2.88441 5.97202 3.44302 6.0861C3.23132 6.1445 3.01262 6.17366 2.79302 6.17277C2.63353 6.17277 2.47945 6.15833 2.32959 6.12944C2.48706 6.62042 2.79423 7.04982 3.20804 7.35743C3.62186 7.66503 4.12156 7.83542 4.63709 7.84471C3.76233 8.53236 2.68154 8.90549 1.56885 8.90397C1.37145 8.90397 1.17404 8.89434 0.981445 8.87027C2.11095 9.59104 3.423 9.97382 4.76288 9.97346Z" fill="#7A869A"/>
</svg>
