<svg width="14" height="14" viewBox="0 0 14 14" fill="none" xmlns="http://www.w3.org/2000/svg">
<path d="M0.983861 13.0185L1.79756 10.0285C1.2614 9.10937 0.979706 8.06403 0.981453 6.99996C0.981453 3.67594 3.67594 0.981445 6.99997 0.981445C10.324 0.981445 13.0185 3.67594 13.0185 6.99996C13.0185 10.324 10.324 13.0185 6.99997 13.0185C5.93637 13.0202 4.89148 12.7387 3.97266 12.203L0.983861 13.0185ZM4.82789 4.17608C4.75017 4.1809 4.67422 4.20137 4.6046 4.23626C4.53931 4.27323 4.47972 4.31945 4.42766 4.37348C4.35544 4.44149 4.31451 4.50047 4.27057 4.55765C4.04814 4.84714 3.92849 5.20248 3.93053 5.56756C3.93173 5.86246 4.00877 6.14955 4.12914 6.41797C4.3753 6.96084 4.78034 7.53561 5.31539 8.06825C5.44419 8.19645 5.56997 8.32524 5.70539 8.44501C6.36947 9.02969 7.16082 9.45133 8.0165 9.6764L8.35895 9.72876C8.4703 9.73478 8.58164 9.72635 8.69358 9.72094C8.86887 9.71189 9.04002 9.66443 9.19493 9.58191C9.27374 9.54131 9.35066 9.49713 9.42544 9.4495C9.42544 9.4495 9.45132 9.43265 9.50067 9.39534C9.58192 9.33515 9.63187 9.29242 9.69928 9.222C9.74923 9.17024 9.79257 9.10946 9.82567 9.04024C9.87261 8.94214 9.91956 8.75496 9.93882 8.59908C9.95326 8.47992 9.94905 8.41492 9.94724 8.37459C9.94483 8.3102 9.89127 8.24339 9.83289 8.2151L9.48261 8.05802C9.48261 8.05802 8.959 7.82992 8.63942 7.68427C8.60572 7.66958 8.56961 7.66122 8.53289 7.65959C8.49171 7.65537 8.4501 7.66 8.41086 7.67318C8.37162 7.68637 8.33566 7.70779 8.30539 7.73603V7.73483C8.30238 7.73483 8.26206 7.76913 7.82692 8.29635C7.80194 8.32991 7.76754 8.35528 7.72809 8.36921C7.68865 8.38315 7.64595 8.38502 7.60544 8.37459C7.56622 8.36411 7.5278 8.35083 7.49048 8.33487C7.41585 8.30358 7.38997 8.29154 7.33882 8.26927L7.33581 8.26807C6.99149 8.11774 6.6727 7.91469 6.3909 7.66621C6.31507 7.60001 6.24465 7.52779 6.17243 7.45797C5.93564 7.23122 5.72929 6.97469 5.55854 6.69483L5.52303 6.63765C5.49752 6.59923 5.4769 6.55779 5.46164 6.51427C5.43877 6.4258 5.49835 6.35478 5.49835 6.35478C5.49835 6.35478 5.6446 6.19469 5.71261 6.10802C5.76924 6.03599 5.82207 5.96106 5.8709 5.88353C5.94192 5.76918 5.96419 5.65182 5.92687 5.56094C5.75835 5.14927 5.58382 4.73941 5.40446 4.33256C5.36895 4.25191 5.26363 4.19413 5.16794 4.1827C5.13544 4.17908 5.10294 4.17547 5.07044 4.17307C4.98961 4.16905 4.90862 4.16985 4.82789 4.17547V4.17608Z" fill="#7A869A"/>
</svg>
